# xmcd CD database file
# Copyright (C) 1993-1996 Ti Kan
#
# Track frame offsets:
#  150
#  17655
#  19169
#  20930
#  22340
#  34085
#  35817
#  38050
#  41153
#  59235
#  61663
#  63908
#  64801
#  79656
#  81917
#  83994
#  85166
#  96962
#  98400
#  100454
#  102502
#  118934
#  120615
#  121477
#  123194
#  137698
#  138598
#  140639
#  141575
#  155226
#  156932
#  158808
#  159791
#  170180
#  171457
#  173814
#  175074
#  193410
#  195137
#  196134
#  197355
#  213547
#  214557
#  216087
#  216805
#  230780
#  231653
#  232488
#  234084
#
# Disc length: 3353 seconds
#
# Revision: 1
# Processed by: cddbd v1.5.2PL0 Copyright (c) Steve Scherf et al.
# Submitted via: Advanced CD Ripper Pro 2.0
#
DISCID=e20d1731
DTITLE=sdfgh - xcvb
DYEAR=2003
DGENRE=cbghn
TTITLE0=Track01
TTITLE1=Track02
TTITLE2=Track03
TTITLE3=Track04
TTITLE4=Track05
TTITLE5=Track06
TTITLE6=Track07
TTITLE7=Track08
TTITLE8=Track09
TTITLE9=Track10
TTITLE10=Track11
TTITLE11=Track12
TTITLE12=Track13
TTITLE13=Track14
TTITLE14=Track15
TTITLE15=Track16
TTITLE16=Track17
TTITLE17=Track18
TTITLE18=Track19
TTITLE19=Track20
TTITLE20=Track21
TTITLE21=Track22
TTITLE22=Track23
TTITLE23=Track24
TTITLE24=Track25
TTITLE25=Track26
TTITLE26=Track27
TTITLE27=Track28
TTITLE28=Track29
TTITLE29=Track30
TTITLE30=Track31
TTITLE31=Track32
TTITLE32=Track33
TTITLE33=Track34
TTITLE34=Track35
TTITLE35=Track36
TTITLE36=Track37
TTITLE37=Track38
TTITLE38=Track39
TTITLE39=Track40
TTITLE40=Track41
TTITLE41=Track42
TTITLE42=Track43
TTITLE43=Track44
TTITLE44=Track45
TTITLE45=Track46
TTITLE46=Track47
TTITLE47=Track48
TTITLE48=Track49
EXTD=
EXTT0=
EXTT1=
EXTT2=
EXTT3=
EXTT4=
EXTT5=
EXTT6=
EXTT7=
EXTT8=
EXTT9=
EXTT10=
EXTT11=
EXTT12=
EXTT13=
EXTT14=
EXTT15=
EXTT16=
EXTT17=
EXTT18=
EXTT19=
EXTT20=
EXTT21=
EXTT22=
EXTT23=
EXTT24=
EXTT25=
EXTT26=
EXTT27=
EXTT28=
EXTT29=
EXTT30=
EXTT31=
EXTT32=
EXTT33=
EXTT34=
EXTT35=
EXTT36=
EXTT37=
EXTT38=
EXTT39=
EXTT40=
EXTT41=
EXTT42=
EXTT43=
EXTT44=
EXTT45=
EXTT46=
EXTT47=
EXTT48=
PLAYORDER=
